<svg xmlns="http://www.w3.org/2000/svg" version="1.1" xmlns:xlink="http://www.w3.org/1999/xlink" xmlns:svgjs="http://svgjs.com/svgjs" width="1440" height="900" preserveAspectRatio="none" viewBox="0 0 1440 900"><g mask="url(&quot;#SvgjsMask1102&quot;)" fill="none"><rect width="1440" height="900" x="0" y="0" fill="rgba(28, 28, 40, 1)"></rect><path d="M0,554.78C103.742,564.069,206.036,511.577,285.482,444.219C359.813,381.198,371.335,275.378,425.273,194.215C492.93,92.408,651.615,29.551,642.042,-92.312C632.644,-211.942,478.644,-259.014,383.884,-332.637C307.448,-392.024,232.612,-449.127,141.332,-481.334C45.889,-515.01,-54.964,-546.023,-153.328,-522.189C-253.786,-497.847,-336.869,-428.65,-403.213,-349.386C-468.791,-271.037,-511.278,-176.726,-526.981,-75.768C-542.807,25.985,-544.067,135.777,-492.542,224.936C-442.641,311.284,-337.281,340.386,-254.416,395.879C-169.62,452.665,-101.647,545.679,0,554.78" fill="#12121a"></path><path d="M1440 1427.9389999999999C1537.502 1424.79 1609.9470000000001 1344.588 1694.894 1296.623 1785.933 1245.217 1898.762 1222.953 1956.9099999999999 1136.065 2018.261 1044.392 2020.621 927.422 2015.723 817.223 2010.421 697.923 2003.87 569.38 1927.6390000000001 477.459 1850.932 384.96299999999997 1724.666 356.874 1608.491 326.17100000000005 1495.057 296.192 1370.701 252.38800000000003 1264.468 302.19399999999996 1160.182 351.087 1140.758 488.466 1069.431 578.9 1002.549 663.698 889.737 712.953 858.867 816.446 826.514 924.91 839.455 1050.997 900.108 1146.56 958.6279999999999 1238.763 1077.459 1262.962 1174.3020000000001 1313.434 1261.592 1358.9279999999999 1341.617 1431.116 1440 1427.9389999999999" fill="#262636"></path></g><defs><mask id="SvgjsMask1102"><rect width="1440" height="900" fill="#ffffff"></rect></mask></defs></svg>