<svg width="26" height="24" viewBox="0 0 26 24" fill="none" xmlns="http://www.w3.org/2000/svg">
<path d="M23.8048 1L14.4401 7.95529L16.1718 3.85177L23.8048 1Z" fill="#E2761B" stroke="#E2761B" stroke-linecap="round" stroke-linejoin="round"/>
<path d="M2.18587 1L11.4753 8.02118L9.82822 3.85177L2.18587 1ZM20.4353 17.1224L17.9412 20.9435L23.2776 22.4118L24.8117 17.2071L20.4353 17.1224ZM1.19763 17.2071L2.72234 22.4118L8.05881 20.9435L5.56469 17.1224L1.19763 17.2071Z" fill="#E4761B" stroke="#E4761B" stroke-linecap="round" stroke-linejoin="round"/>
<path d="M7.75757 10.6659L6.27051 12.9153L11.5693 13.1506L11.3811 7.45651L7.75757 10.6659ZM18.2329 10.6659L14.5623 7.39062L14.4399 13.1506L19.7293 12.9153L18.2329 10.6659ZM8.05874 20.9436L11.2399 19.3906L8.49168 17.2447L8.05874 20.9436ZM14.7505 19.3906L17.9411 20.9436L17.4987 17.2447L14.7505 19.3906Z" fill="#E4761B" stroke="#E4761B" stroke-linecap="round" stroke-linejoin="round"/>
<path d="M17.9411 20.9436L14.7505 19.3906L15.0046 21.4706L14.9764 22.3459L17.9411 20.9436ZM8.05872 20.9436L11.0234 22.3459L11.0046 21.4706L11.2399 19.3906L8.05872 20.9436Z" fill="#D7C1B3" stroke="#D7C1B3" stroke-linecap="round" stroke-linejoin="round"/>
<path d="M11.0705 15.8706L8.41638 15.0894L10.2893 14.2329L11.0705 15.8706ZM14.9199 15.8706L15.7011 14.2329L17.5834 15.0894L14.9199 15.8706Z" fill="#233447" stroke="#233447" stroke-linecap="round" stroke-linejoin="round"/>
<path d="M8.05882 20.6941L8.51058 16.397L5.5647 16.4922L8.05882 20.6941ZM17.4894 16.397L17.9412 20.6941L20.4353 16.4922L17.4894 16.397ZM19.7294 11.6659L14.44 11.9305L14.9294 14.9893L15.7106 13.1477L17.5929 14.1108L19.7294 11.6659ZM8.41646 14.1108L10.2988 13.1477L11.0706 14.9893L11.5694 11.9305L6.27058 11.6659L8.41646 14.1108Z" fill="#CD6116" stroke="#CD6116" stroke-linecap="round" stroke-linejoin="round"/>
<path d="M6.27051 12.9153L8.49168 17.2447L8.41639 15.0894L6.27051 12.9153ZM17.5929 15.0894L17.4987 17.2447L19.7293 12.9153L17.5929 15.0894ZM11.5693 13.1506L11.0705 15.8706L11.6917 19.08L11.8329 14.8541L11.5693 13.1506ZM14.4399 13.1506L14.1858 14.8447L14.2987 19.08L14.9293 15.8706L14.4399 13.1506Z" fill="#E4751F" stroke="#E4751F" stroke-linecap="round" stroke-linejoin="round"/>
<path d="M14.9293 15.8705L14.2987 19.0799L14.7505 19.3905L17.4987 17.2447L17.5929 15.0894L14.9293 15.8705ZM8.41638 15.0894L8.49168 17.2447L11.2399 19.3905L11.6917 19.0799L11.0705 15.8705L8.41638 15.0894Z" fill="#F6851B" stroke="#F6851B" stroke-linecap="round" stroke-linejoin="round"/>
<path d="M14.9764 22.346L15.0046 21.4707L14.7693 21.2636H11.2211L11.0046 21.4707L11.0234 22.346L8.05872 20.9436L9.09401 21.7907L11.1928 23.2495H14.7975L16.9058 21.7907L17.9411 20.9436L14.9764 22.346Z" fill="#C0AD9E" stroke="#C0AD9E" stroke-linecap="round" stroke-linejoin="round"/>
<path d="M14.7505 19.3907L14.2988 19.0801H11.6917L11.2399 19.3907L11.0046 21.4707L11.2211 21.2636H14.7693L15.0046 21.4707L14.7505 19.3907Z" fill="#161616" stroke="#161616" stroke-linecap="round" stroke-linejoin="round"/>
<path d="M24.2 8.40706L25 4.56706L23.8047 1L14.7506 7.72L18.2329 10.6659L23.1553 12.1059L24.2471 10.8353L23.7765 10.4965L24.5294 9.80941L23.9459 9.35765L24.6988 8.78353L24.2 8.40706ZM1 4.56706L1.8 8.40706L1.29176 8.78353L2.04471 9.35765L1.47059 9.80941L2.22353 10.4965L1.75294 10.8353L2.83529 12.1059L7.75765 10.6659L11.24 7.72L2.18588 1L1 4.56706Z" fill="#763D16" stroke="#763D16" stroke-linecap="round" stroke-linejoin="round"/>
<path d="M23.1553 12.1059L18.2329 10.6659L19.7294 12.9153L17.4988 17.2447L20.4353 17.2071H24.8117L23.1553 12.1059ZM7.75763 10.6659L2.83528 12.1059L1.19763 17.2071H5.56469L8.49175 17.2447L6.27057 12.9153L7.75763 10.6659ZM14.44 13.1506L14.7506 7.72004L16.1812 3.85181H9.82822L11.24 7.72004L11.5694 13.1506L11.6823 14.8636L11.6917 19.08H14.2988L14.3176 14.8636L14.44 13.1506Z" fill="#F6851B" stroke="#F6851B" stroke-linecap="round" stroke-linejoin="round"/>
</svg>
